<?xml version="1.0" encoding="UTF-8" standalone="no"?>
<!-- Created with Inkscape (http://www.inkscape.org/) -->

<svg
   width="210mm"
   height="297mm"
   viewBox="0 0 210 297"
   version="1.1"
   id="svg862"
   inkscape:version="1.2 (dc2aeda, 2022-05-15)"
   sodipodi:docname="roadmap-infographic.svg"
   xmlns:inkscape="http://www.inkscape.org/namespaces/inkscape"
   xmlns:sodipodi="http://sodipodi.sourceforge.net/DTD/sodipodi-0.dtd"
   xmlns="http://www.w3.org/2000/svg"
   xmlns:svg="http://www.w3.org/2000/svg">
  <sodipodi:namedview
     id="namedview864"
     pagecolor="#ffffff"
     bordercolor="#666666"
     borderopacity="1.0"
     inkscape:showpageshadow="2"
     inkscape:pageopacity="0.0"
     inkscape:pagecheckerboard="0"
     inkscape:deskcolor="#d1d1d1"
     inkscape:document-units="mm"
     showgrid="false"
     inkscape:zoom="0.84096521"
     inkscape:cx="393.0008"
     inkscape:cy="837.72788"
     inkscape:window-width="1440"
     inkscape:window-height="811"
     inkscape:window-x="0"
     inkscape:window-y="25"
     inkscape:window-maximized="0"
     inkscape:current-layer="layer2" />
  <defs
     id="defs859">
    <inkscape:path-effect
       effect="bspline"
       id="path-effect1090"
       is_visible="true"
       lpeversion="1"
       weight="33.333333"
       steps="2"
       helper_size="0"
       apply_no_weight="true"
       apply_with_weight="true"
       only_selected="false" />
    <inkscape:path-effect
       effect="bspline"
       id="path-effect1039"
       is_visible="true"
       lpeversion="1"
       weight="33.333333"
       steps="2"
       helper_size="0"
       apply_no_weight="true"
       apply_with_weight="true"
       only_selected="false" />
  </defs>
  <g
     inkscape:groupmode="layer"
     id="layer2"
     inkscape:label="background">
    <rect
       style="fill:#da3e00;fill-opacity:1;stroke-width:0.264583"
       id="rect1765"
       width="214.25529"
       height="300.14618"
       x="-2.5169489"
       y="-1.8877118" />
  </g>
  <g
     inkscape:label="Layer 1"
     inkscape:groupmode="layer"
     id="layer1">
    <path
       style="fill:#000000;stroke:#000000;stroke-width:0.264583px;stroke-linecap:butt;stroke-linejoin:miter;stroke-opacity:1;fill-opacity:1"
       d="m 113.82085,297.43175 c -17.602726,0.26882 -52.80774,0.80644 -70.412363,0.93673 -17.604622,0.13029 -17.607189,-0.14703 -16.559759,-1.64916 1.047429,-1.50213 3.144862,-4.22879 8.493428,-13.66742 5.348566,-9.43864 13.947875,-25.58856 20.659822,-39.27461 6.711948,-13.68606 11.536005,-24.90724 17.041942,-38.59341 5.505937,-13.68618 11.693188,-29.83595 17.775938,-44.72821 6.082751,-14.89226 12.060262,-28.52518 14.052962,-40.90023 1.9927,-12.37505 1.6e-4,-23.491357 -4.77151,-34.817738 C 95.32965,73.41132 87.778955,61.875536 88.093369,47.822359 c 0.314414,-14.053178 8.494502,-30.6231 12.612521,-39.068502 4.11803,-8.44540208 4.17397,-8.76636023 4.9367,-8.98954107 0.76274,-0.22318084 2.23191,-0.3483154 2.8621,-0.14430175 0.63019,0.20401365 0.42164,0.73700319 0.1899,1.28158333 -0.23174,0.54458019 -0.48665,1.10073969 -1.96054,4.52822109 -1.47389,3.4274815 -4.16664,9.7260094 -5.75637,13.6702344 -1.589725,3.944225 -2.076366,5.533919 -2.528259,7.149162 -0.451892,1.615243 -0.869013,3.255919 -1.26065,5.077415 -0.391638,1.821497 -0.757777,3.823678 -0.996455,6.113302 -0.238678,2.289624 -0.349911,4.866504 -0.345259,7.012435 0.0047,2.14593 0.125153,3.860761 0.354597,5.587242 0.229445,1.726481 0.567776,3.464485 0.973338,5.160832 0.405563,1.696348 0.8783,3.350928 1.652331,5.631266 0.774032,2.280338 1.849277,5.186282 3.552597,9.200044 1.70331,4.013761 4.03455,9.135079 5.93946,13.2925 1.90491,4.157421 3.38337,7.350717 4.58609,10.136238 1.20272,2.785521 2.12965,5.163112 2.86193,7.251091 0.73229,2.08798 1.26991,3.88623 1.7496,5.77723 0.47969,1.891 0.90145,3.87465 1.24904,6.14107 0.3476,2.26642 0.62104,4.81549 0.76702,7.88373 0.14598,3.06824 0.16451,6.65548 0.0834,10.05975 -0.0811,3.40426 -0.26188,6.62536 -0.41946,9.26488 -0.15759,2.63952 -0.29199,4.69732 -0.41944,7.59178 -0.12746,2.89445 -0.24796,6.62537 -0.25259,11.78626 -0.005,5.16088 0.10661,11.75139 0.36617,18.65033 0.25955,6.89893 0.66741,14.10585 1.06369,19.89705 0.39628,5.79119 0.78095,10.16633 2.20849,22.89362 1.42754,12.7273 3.89782,33.80581 5.57562,47.57114 1.6778,13.76534 2.56303,20.21681 3.03809,23.73229 0.47506,3.51547 0.53995,4.09481 0.58397,4.52584 0.044,0.43104 0.0672,0.71375 0.0741,0.80181 0.007,0.0881 -0.002,-0.0185 -0.007,-0.072 -0.005,-0.0534 -0.005,-0.0534 -17.60732,0.21537 z"
       id="path1037"
       inkscape:path-effect="#path-effect1039"
       inkscape:original-d="m 131.42358,297.16294 c -35.205452,0.5379 -70.410466,1.07552 -105.617151,1.6129 -0.0023,-0.27707 -0.0049,-0.55439 -0.0077,-0.83199 2.097722,-2.72643 4.195156,-5.45309 6.292372,-8.18008 8.599936,-16.15034 17.199246,-32.30026 25.798729,-48.45127 4.824417,-11.22113 9.648473,-22.44231 14.472457,-33.6642 6.187887,-16.15048 12.375139,-32.30025 18.5625,-48.45126 5.978141,-13.63349 11.955653,-27.26641 17.933263,-40.90043 C 106.86573,107.18035 104.87319,96.064045 102.8803,84.947034 95.329712,73.41128 87.779018,61.875495 80.227754,50.338981 88.408101,33.769338 96.588189,17.199416 104.76801,0.62923605 c 0.0562,-0.32073036 0.11213,-0.64169017 0.16783,-0.96293951 1.46951,-0.12487615 2.93868,-0.25001121 4.40766,-0.37541645 -0.2083,0.53327101 -0.41685,1.06626177 -0.62567,1.59899578 -0.25466,0.55644813 -0.50957,1.11260953 -0.76476,1.66851733 -2.69259,6.2990435 -5.38534,12.5975708 -8.078403,18.8959588 -0.486396,1.590023 -0.973038,3.179717 -1.459953,4.769179 -0.416873,1.641006 -0.833994,3.281682 -1.251388,4.922126 -0.36589,2.002525 -0.732029,4.004706 -1.098441,6.006662 -0.110972,2.577249 -0.222204,5.154129 -0.333703,7.730797 0.120771,1.715164 0.241273,3.429995 0.361512,5.144595 0.33861,1.738339 0.676941,3.476343 1.015015,5.214117 0.47302,1.654911 0.945757,3.309491 1.418239,4.963839 1.075553,2.906324 2.150802,5.812267 3.225802,8.718003 2.3316,5.121788 4.66284,10.243107 6.99387,15.364264 1.47878,3.193685 2.95725,6.386978 4.43547,9.58007 0.92724,2.37795 1.85418,4.755539 2.78086,7.132916 0.53791,1.79859 1.07554,3.59684 1.6129,5.39487 0.42204,1.98398 0.8438,3.96763 1.2653,5.95104 0.27372,2.54944 0.54716,5.09852 0.82035,7.64737 0.0188,3.58765 0.0373,7.17489 0.0556,10.76194 -0.1805,3.2215 -0.36125,6.4426 -0.54227,9.6635 -0.13415,2.05814 -0.26855,4.11594 -0.40322,6.17351 -0.12025,3.73133 -0.24075,7.46225 -0.36152,11.19297 0.1115,6.59104 0.22274,13.18155 0.33371,19.77193 0.40813,7.20748 0.81598,14.4144 1.22358,21.62121 0.38495,4.37557 0.76963,8.75071 1.15405,13.12567 2.47065,21.07962 4.94093,42.15813 7.411,63.2368 0.88553,6.452 1.77075,12.90347 2.65573,19.3548 0.0651,0.57963 0.13003,1.15896 0.19466,1.73804 0.0234,0.283 0.0466,0.56571 0.0695,0.84817 -0.009,-0.10634 -0.0182,-0.21294 -0.0278,-0.3198 z"
       sodipodi:nodetypes="ccccccccccccccccccccccccccccccccccccccccsc" />
  </g>
</svg>
