<?xml version="1.0" encoding="utf-8" standalone="no"?>
<!DOCTYPE svg PUBLIC "-//W3C//DTD SVG 1.1//EN"
  "http://www.w3.org/Graphics/SVG/1.1/DTD/svg11.dtd">
<svg xmlns:xlink="http://www.w3.org/1999/xlink" width="648pt" height="432pt" viewBox="0 0 648 432" xmlns="http://www.w3.org/2000/svg" version="1.1">
 <metadata>
  <rdf:RDF xmlns:dc="http://purl.org/dc/elements/1.1/" xmlns:cc="http://creativecommons.org/ns#" xmlns:rdf="http://www.w3.org/1999/02/22-rdf-syntax-ns#">
   <cc:Work>
    <dc:type rdf:resource="http://purl.org/dc/dcmitype/StillImage"/>
    <dc:date>2022-11-04T09:08:04.482889</dc:date>
    <dc:format>image/svg+xml</dc:format>
    <dc:creator>
     <cc:Agent>
      <dc:title>Matplotlib v3.6.0, https://matplotlib.org/</dc:title>
     </cc:Agent>
    </dc:creator>
   </cc:Work>
  </rdf:RDF>
 </metadata>
 <defs>
  <style type="text/css">*{stroke-linejoin: round; stroke-linecap: butt}</style>
 </defs>
 <g id="figure_1">
  <g id="patch_1">
   <path d="M 0 432 
L 648 432 
L 648 0 
L 0 0 
z
" style="fill: #f0f0f0"/>
  </g>
  <g id="axes_1">
   <g id="patch_2">
    <path d="M 81 384.48 
L 583.2 384.48 
L 583.2 51.84 
L 81 51.84 
z
" style="fill: #ffffff"/>
   </g>
   <g id="matplotlib.axis_1">
    <g id="xtick_1">
     <g id="line2d_1">
      <defs>
       <path id="mf3f21f492f" d="M 0 0 
L 0 3.5 
" style="stroke: #000000; stroke-width: 0.8"/>
      </defs>
      <g>
       <use xlink:href="#mf3f21f492f" x="131.22" y="384.48" style="stroke: #000000; stroke-width: 0.8"/>
      </g>
     </g>
     <g id="text_1">
      <!-- 600 -->
      <g transform="translate(121.67625 399.078438) scale(0.1 -0.1)">
       <defs>
        <path id="DejaVuSans-36" d="M 2113 2584 
Q 1688 2584 1439 2293 
Q 1191 2003 1191 1497 
Q 1191 994 1439 701 
Q 1688 409 2113 409 
Q 2538 409 2786 701 
Q 3034 994 3034 1497 
Q 3034 2003 2786 2293 
Q 2538 2584 2113 2584 
z
M 3366 4563 
L 3366 3988 
Q 3128 4100 2886 4159 
Q 2644 4219 2406 4219 
Q 1781 4219 1451 3797 
Q 1122 3375 1075 2522 
Q 1259 2794 1537 2939 
Q 1816 3084 2150 3084 
Q 2853 3084 3261 2657 
Q 3669 2231 3669 1497 
Q 3669 778 3244 343 
Q 2819 -91 2113 -91 
Q 1303 -91 875 529 
Q 447 1150 447 2328 
Q 447 3434 972 4092 
Q 1497 4750 2381 4750 
Q 2619 4750 2861 4703 
Q 3103 4656 3366 4563 
z
" transform="scale(0.015625)"/>
        <path id="DejaVuSans-30" d="M 2034 4250 
Q 1547 4250 1301 3770 
Q 1056 3291 1056 2328 
Q 1056 1369 1301 889 
Q 1547 409 2034 409 
Q 2525 409 2770 889 
Q 3016 1369 3016 2328 
Q 3016 3291 2770 3770 
Q 2525 4250 2034 4250 
z
M 2034 4750 
Q 2819 4750 3233 4129 
Q 3647 3509 3647 2328 
Q 3647 1150 3233 529 
Q 2819 -91 2034 -91 
Q 1250 -91 836 529 
Q 422 1150 422 2328 
Q 422 3509 836 4129 
Q 1250 4750 2034 4750 
z
" transform="scale(0.015625)"/>
       </defs>
       <use xlink:href="#DejaVuSans-36"/>
       <use xlink:href="#DejaVuSans-30" x="63.623047"/>
       <use xlink:href="#DejaVuSans-30" x="127.246094"/>
      </g>
     </g>
    </g>
    <g id="xtick_2">
     <g id="line2d_2">
      <g>
       <use xlink:href="#mf3f21f492f" x="231.66" y="384.48" style="stroke: #000000; stroke-width: 0.8"/>
      </g>
     </g>
     <g id="text_2">
      <!-- 800 -->
      <g transform="translate(222.11625 399.078438) scale(0.1 -0.1)">
       <defs>
        <path id="DejaVuSans-38" d="M 2034 2216 
Q 1584 2216 1326 1975 
Q 1069 1734 1069 1313 
Q 1069 891 1326 650 
Q 1584 409 2034 409 
Q 2484 409 2743 651 
Q 3003 894 3003 1313 
Q 3003 1734 2745 1975 
Q 2488 2216 2034 2216 
z
M 1403 2484 
Q 997 2584 770 2862 
Q 544 3141 544 3541 
Q 544 4100 942 4425 
Q 1341 4750 2034 4750 
Q 2731 4750 3128 4425 
Q 3525 4100 3525 3541 
Q 3525 3141 3298 2862 
Q 3072 2584 2669 2484 
Q 3125 2378 3379 2068 
Q 3634 1759 3634 1313 
Q 3634 634 3220 271 
Q 2806 -91 2034 -91 
Q 1263 -91 848 271 
Q 434 634 434 1313 
Q 434 1759 690 2068 
Q 947 2378 1403 2484 
z
M 1172 3481 
Q 1172 3119 1398 2916 
Q 1625 2713 2034 2713 
Q 2441 2713 2670 2916 
Q 2900 3119 2900 3481 
Q 2900 3844 2670 4047 
Q 2441 4250 2034 4250 
Q 1625 4250 1398 4047 
Q 1172 3844 1172 3481 
z
" transform="scale(0.015625)"/>
       </defs>
       <use xlink:href="#DejaVuSans-38"/>
       <use xlink:href="#DejaVuSans-30" x="63.623047"/>
       <use xlink:href="#DejaVuSans-30" x="127.246094"/>
      </g>
     </g>
    </g>
    <g id="xtick_3">
     <g id="line2d_3">
      <g>
       <use xlink:href="#mf3f21f492f" x="332.1" y="384.48" style="stroke: #000000; stroke-width: 0.8"/>
      </g>
     </g>
     <g id="text_3">
      <!-- 1000 -->
      <g transform="translate(319.375 399.078438) scale(0.1 -0.1)">
       <defs>
        <path id="DejaVuSans-31" d="M 794 531 
L 1825 531 
L 1825 4091 
L 703 3866 
L 703 4441 
L 1819 4666 
L 2450 4666 
L 2450 531 
L 3481 531 
L 3481 0 
L 794 0 
L 794 531 
z
" transform="scale(0.015625)"/>
       </defs>
       <use xlink:href="#DejaVuSans-31"/>
       <use xlink:href="#DejaVuSans-30" x="63.623047"/>
       <use xlink:href="#DejaVuSans-30" x="127.246094"/>
       <use xlink:href="#DejaVuSans-30" x="190.869141"/>
      </g>
     </g>
    </g>
    <g id="xtick_4">
     <g id="line2d_4">
      <g>
       <use xlink:href="#mf3f21f492f" x="432.54" y="384.48" style="stroke: #000000; stroke-width: 0.8"/>
      </g>
     </g>
     <g id="text_4">
      <!-- 1200 -->
      <g transform="translate(419.815 399.078438) scale(0.1 -0.1)">
       <defs>
        <path id="DejaVuSans-32" d="M 1228 531 
L 3431 531 
L 3431 0 
L 469 0 
L 469 531 
Q 828 903 1448 1529 
Q 2069 2156 2228 2338 
Q 2531 2678 2651 2914 
Q 2772 3150 2772 3378 
Q 2772 3750 2511 3984 
Q 2250 4219 1831 4219 
Q 1534 4219 1204 4116 
Q 875 4013 500 3803 
L 500 4441 
Q 881 4594 1212 4672 
Q 1544 4750 1819 4750 
Q 2544 4750 2975 4387 
Q 3406 4025 3406 3419 
Q 3406 3131 3298 2873 
Q 3191 2616 2906 2266 
Q 2828 2175 2409 1742 
Q 1991 1309 1228 531 
z
" transform="scale(0.015625)"/>
       </defs>
       <use xlink:href="#DejaVuSans-31"/>
       <use xlink:href="#DejaVuSans-32" x="63.623047"/>
       <use xlink:href="#DejaVuSans-30" x="127.246094"/>
       <use xlink:href="#DejaVuSans-30" x="190.869141"/>
      </g>
     </g>
    </g>
    <g id="xtick_5">
     <g id="line2d_5">
      <g>
       <use xlink:href="#mf3f21f492f" x="532.98" y="384.48" style="stroke: #000000; stroke-width: 0.8"/>
      </g>
     </g>
     <g id="text_5">
      <!-- 1400 -->
      <g transform="translate(520.255 399.078438) scale(0.1 -0.1)">
       <defs>
        <path id="DejaVuSans-34" d="M 2419 4116 
L 825 1625 
L 2419 1625 
L 2419 4116 
z
M 2253 4666 
L 3047 4666 
L 3047 1625 
L 3713 1625 
L 3713 1100 
L 3047 1100 
L 3047 0 
L 2419 0 
L 2419 1100 
L 313 1100 
L 313 1709 
L 2253 4666 
z
" transform="scale(0.015625)"/>
       </defs>
       <use xlink:href="#DejaVuSans-31"/>
       <use xlink:href="#DejaVuSans-34" x="63.623047"/>
       <use xlink:href="#DejaVuSans-30" x="127.246094"/>
       <use xlink:href="#DejaVuSans-30" x="190.869141"/>
      </g>
     </g>
    </g>
   </g>
   <g id="matplotlib.axis_2">
    <g id="ytick_1">
     <g id="line2d_6">
      <defs>
       <path id="m66a3163803" d="M 0 0 
L -3.5 0 
" style="stroke: #000000; stroke-width: 0.8"/>
      </defs>
      <g>
       <use xlink:href="#m66a3163803" x="81" y="369.36" style="stroke: #000000; stroke-width: 0.8"/>
      </g>
     </g>
     <g id="text_6">
      <!-- 0.00 -->
      <g transform="translate(51.734375 373.159219) scale(0.1 -0.1)">
       <defs>
        <path id="DejaVuSans-2e" d="M 684 794 
L 1344 794 
L 1344 0 
L 684 0 
L 684 794 
z
" transform="scale(0.015625)"/>
       </defs>
       <use xlink:href="#DejaVuSans-30"/>
       <use xlink:href="#DejaVuSans-2e" x="63.623047"/>
       <use xlink:href="#DejaVuSans-30" x="95.410156"/>
       <use xlink:href="#DejaVuSans-30" x="159.033203"/>
      </g>
     </g>
    </g>
    <g id="ytick_2">
     <g id="line2d_7">
      <g>
       <use xlink:href="#m66a3163803" x="81" y="331.45978" style="stroke: #000000; stroke-width: 0.8"/>
      </g>
     </g>
     <g id="text_7">
      <!-- 0.05 -->
      <g transform="translate(51.734375 335.258999) scale(0.1 -0.1)">
       <defs>
        <path id="DejaVuSans-35" d="M 691 4666 
L 3169 4666 
L 3169 4134 
L 1269 4134 
L 1269 2991 
Q 1406 3038 1543 3061 
Q 1681 3084 1819 3084 
Q 2600 3084 3056 2656 
Q 3513 2228 3513 1497 
Q 3513 744 3044 326 
Q 2575 -91 1722 -91 
Q 1428 -91 1123 -41 
Q 819 9 494 109 
L 494 744 
Q 775 591 1075 516 
Q 1375 441 1709 441 
Q 2250 441 2565 725 
Q 2881 1009 2881 1497 
Q 2881 1984 2565 2268 
Q 2250 2553 1709 2553 
Q 1456 2553 1204 2497 
Q 953 2441 691 2322 
L 691 4666 
z
" transform="scale(0.015625)"/>
       </defs>
       <use xlink:href="#DejaVuSans-30"/>
       <use xlink:href="#DejaVuSans-2e" x="63.623047"/>
       <use xlink:href="#DejaVuSans-30" x="95.410156"/>
       <use xlink:href="#DejaVuSans-35" x="159.033203"/>
      </g>
     </g>
    </g>
    <g id="ytick_3">
     <g id="line2d_8">
      <g>
       <use xlink:href="#m66a3163803" x="81" y="293.559561" style="stroke: #000000; stroke-width: 0.8"/>
      </g>
     </g>
     <g id="text_8">
      <!-- 0.10 -->
      <g transform="translate(51.734375 297.35878) scale(0.1 -0.1)">
       <use xlink:href="#DejaVuSans-30"/>
       <use xlink:href="#DejaVuSans-2e" x="63.623047"/>
       <use xlink:href="#DejaVuSans-31" x="95.410156"/>
       <use xlink:href="#DejaVuSans-30" x="159.033203"/>
      </g>
     </g>
    </g>
    <g id="ytick_4">
     <g id="line2d_9">
      <g>
       <use xlink:href="#m66a3163803" x="81" y="255.659341" style="stroke: #000000; stroke-width: 0.8"/>
      </g>
     </g>
     <g id="text_9">
      <!-- 0.15 -->
      <g transform="translate(51.734375 259.45856) scale(0.1 -0.1)">
       <use xlink:href="#DejaVuSans-30"/>
       <use xlink:href="#DejaVuSans-2e" x="63.623047"/>
       <use xlink:href="#DejaVuSans-31" x="95.410156"/>
       <use xlink:href="#DejaVuSans-35" x="159.033203"/>
      </g>
     </g>
    </g>
    <g id="ytick_5">
     <g id="line2d_10">
      <g>
       <use xlink:href="#m66a3163803" x="81" y="217.759122" style="stroke: #000000; stroke-width: 0.8"/>
      </g>
     </g>
     <g id="text_10">
      <!-- 0.20 -->
      <g transform="translate(51.734375 221.558341) scale(0.1 -0.1)">
       <use xlink:href="#DejaVuSans-30"/>
       <use xlink:href="#DejaVuSans-2e" x="63.623047"/>
       <use xlink:href="#DejaVuSans-32" x="95.410156"/>
       <use xlink:href="#DejaVuSans-30" x="159.033203"/>
      </g>
     </g>
    </g>
    <g id="ytick_6">
     <g id="line2d_11">
      <g>
       <use xlink:href="#m66a3163803" x="81" y="179.858902" style="stroke: #000000; stroke-width: 0.8"/>
      </g>
     </g>
     <g id="text_11">
      <!-- 0.25 -->
      <g transform="translate(51.734375 183.658121) scale(0.1 -0.1)">
       <use xlink:href="#DejaVuSans-30"/>
       <use xlink:href="#DejaVuSans-2e" x="63.623047"/>
       <use xlink:href="#DejaVuSans-32" x="95.410156"/>
       <use xlink:href="#DejaVuSans-35" x="159.033203"/>
      </g>
     </g>
    </g>
    <g id="ytick_7">
     <g id="line2d_12">
      <g>
       <use xlink:href="#m66a3163803" x="81" y="141.958683" style="stroke: #000000; stroke-width: 0.8"/>
      </g>
     </g>
     <g id="text_12">
      <!-- 0.30 -->
      <g transform="translate(51.734375 145.757902) scale(0.1 -0.1)">
       <defs>
        <path id="DejaVuSans-33" d="M 2597 2516 
Q 3050 2419 3304 2112 
Q 3559 1806 3559 1356 
Q 3559 666 3084 287 
Q 2609 -91 1734 -91 
Q 1441 -91 1130 -33 
Q 819 25 488 141 
L 488 750 
Q 750 597 1062 519 
Q 1375 441 1716 441 
Q 2309 441 2620 675 
Q 2931 909 2931 1356 
Q 2931 1769 2642 2001 
Q 2353 2234 1838 2234 
L 1294 2234 
L 1294 2753 
L 1863 2753 
Q 2328 2753 2575 2939 
Q 2822 3125 2822 3475 
Q 2822 3834 2567 4026 
Q 2313 4219 1838 4219 
Q 1578 4219 1281 4162 
Q 984 4106 628 3988 
L 628 4550 
Q 988 4650 1302 4700 
Q 1616 4750 1894 4750 
Q 2613 4750 3031 4423 
Q 3450 4097 3450 3541 
Q 3450 3153 3228 2886 
Q 3006 2619 2597 2516 
z
" transform="scale(0.015625)"/>
       </defs>
       <use xlink:href="#DejaVuSans-30"/>
       <use xlink:href="#DejaVuSans-2e" x="63.623047"/>
       <use xlink:href="#DejaVuSans-33" x="95.410156"/>
       <use xlink:href="#DejaVuSans-30" x="159.033203"/>
      </g>
     </g>
    </g>
    <g id="ytick_8">
     <g id="line2d_13">
      <g>
       <use xlink:href="#m66a3163803" x="81" y="104.058463" style="stroke: #000000; stroke-width: 0.8"/>
      </g>
     </g>
     <g id="text_13">
      <!-- 0.35 -->
      <g transform="translate(51.734375 107.857682) scale(0.1 -0.1)">
       <use xlink:href="#DejaVuSans-30"/>
       <use xlink:href="#DejaVuSans-2e" x="63.623047"/>
       <use xlink:href="#DejaVuSans-33" x="95.410156"/>
       <use xlink:href="#DejaVuSans-35" x="159.033203"/>
      </g>
     </g>
    </g>
    <g id="ytick_9">
     <g id="line2d_14">
      <g>
       <use xlink:href="#m66a3163803" x="81" y="66.158244" style="stroke: #000000; stroke-width: 0.8"/>
      </g>
     </g>
     <g id="text_14">
      <!-- 0.40 -->
      <g transform="translate(51.734375 69.957463) scale(0.1 -0.1)">
       <use xlink:href="#DejaVuSans-30"/>
       <use xlink:href="#DejaVuSans-2e" x="63.623047"/>
       <use xlink:href="#DejaVuSans-34" x="95.410156"/>
       <use xlink:href="#DejaVuSans-30" x="159.033203"/>
      </g>
     </g>
    </g>
   </g>
   <g id="line2d_15">
    <path d="M 80.4978 369.358928 
L 132.7266 369.245674 
L 147.7926 369.000377 
L 157.8366 368.625598 
L 165.3696 368.137924 
L 171.8982 367.49418 
L 177.4224 366.725876 
L 182.4444 365.793622 
L 186.9642 364.715421 
L 190.9818 363.526013 
L 194.4972 362.275207 
L 198.0126 360.798284 
L 201.528 359.06405 
L 204.5412 357.347466 
L 207.5544 355.39505 
L 210.5676 353.183644 
L 213.5808 350.68939 
L 216.594 347.887981 
L 219.6072 344.754976 
L 222.6204 341.266151 
L 225.6336 337.397906 
L 228.6468 333.127712 
L 231.66 328.43461 
L 234.6732 323.299735 
L 237.6864 317.706878 
L 240.6996 311.643064 
L 243.7128 305.099146 
L 246.726 298.070386 
L 250.2414 289.258014 
L 253.7568 279.796252 
L 257.2722 269.706353 
L 261.2898 257.449366 
L 265.3074 244.486572 
L 269.8272 229.176729 
L 275.3514 209.659427 
L 285.8976 171.303837 
L 292.4262 148.019853 
L 296.946 132.670148 
L 300.9636 119.837113 
L 304.479 109.407052 
L 307.4922 101.16867 
L 310.0032 94.860169 
L 312.5142 89.104792 
L 315.0252 83.943178 
L 317.034 80.266361 
L 319.0428 77.010313 
L 321.0516 74.190241 
L 323.0604 71.819412 
L 324.567 70.342935 
L 326.0736 69.129461 
L 327.5802 68.182243 
L 329.0868 67.50383 
L 330.5934 67.096049 
L 332.1 66.96 
L 333.6066 67.096049 
L 335.1132 67.50383 
L 336.6198 68.182243 
L 338.1264 69.129461 
L 339.633 70.342935 
L 341.1396 71.819412 
L 342.6462 73.554944 
L 344.655 76.26387 
L 346.6638 79.412276 
L 348.6726 82.985429 
L 350.6814 86.966738 
L 353.1924 92.489291 
L 355.7034 98.581635 
L 358.7166 106.584345 
L 361.7298 115.266923 
L 365.2452 126.143828 
L 369.2628 139.389591 
L 373.7826 155.076342 
L 380.3112 178.612485 
L 392.364 222.166118 
L 397.386 239.461855 
L 401.9058 254.271587 
L 405.9234 266.712515 
L 409.941 278.392651 
L 413.4564 287.945724 
L 416.9718 296.851729 
L 420.4872 305.099146 
L 423.5004 311.643064 
L 426.5136 317.706878 
L 429.5268 323.299735 
L 432.54 328.43461 
L 435.5532 333.127712 
L 438.5664 337.397906 
L 441.5796 341.266151 
L 444.5928 344.754976 
L 447.606 347.887981 
L 450.6192 350.68939 
L 453.6324 353.183644 
L 456.6456 355.39505 
L 459.6588 357.347466 
L 462.672 359.06405 
L 466.1874 360.798284 
L 469.7028 362.275207 
L 473.2182 363.526013 
L 477.2358 364.715421 
L 481.7556 365.793622 
L 486.2754 366.643619 
L 491.2974 367.371659 
L 497.3238 368.010545 
L 504.3546 368.516925 
L 512.892 368.896176 
L 523.9404 369.154939 
L 541.0152 369.30719 
L 578.6802 369.35824 
L 583.7022 369.358928 
L 583.7022 369.358928 
" clip-path="url(#p7233abec4e)" style="fill: none; stroke: #1f77b4; stroke-width: 4"/>
   </g>
   <g id="line2d_16">
    <path d="M 80.4978 369.36 
L 266.814 369.258371 
L 270.3294 369.017724 
L 272.3382 368.708284 
L 274.347 368.163305 
L 275.8536 367.516738 
L 277.3602 366.578191 
L 278.3646 365.74121 
L 279.369 364.694906 
L 280.3734 363.400384 
L 281.3778 361.815388 
L 282.3822 359.895092 
L 283.3866 357.593245 
L 284.391 354.863678 
L 285.3954 351.662181 
L 286.902 345.889265 
L 288.4086 338.862061 
L 289.9152 330.531454 
L 291.4218 320.923961 
L 293.4306 306.350678 
L 295.9416 286.175547 
L 299.457 257.78341 
L 300.9636 247.051322 
L 302.4702 237.995413 
L 303.4746 233.141836 
L 304.479 229.384329 
L 305.4834 226.821916 
L 305.9856 226.011583 
L 306.4878 225.523173 
L 306.99 225.36 
L 307.4922 225.523173 
L 307.9944 226.011583 
L 308.4966 226.821916 
L 308.9988 227.948694 
L 310.0032 231.119216 
L 311.0076 235.438884 
L 312.012 240.795 
L 313.5186 250.46945 
L 315.5274 265.592907 
L 322.056 317.455518 
L 323.5626 327.466972 
L 325.0692 336.230453 
L 326.5758 343.689987 
L 328.0824 349.871719 
L 329.589 354.863678 
L 331.0956 358.79477 
L 332.1 360.900025 
L 333.1044 362.646948 
L 334.1088 364.081242 
L 335.1132 365.246568 
L 336.6198 366.578191 
L 338.1264 367.516738 
L 339.633 368.163305 
L 341.6418 368.708284 
L 343.6506 369.017724 
L 346.6638 369.238294 
L 351.6858 369.341883 
L 370.7694 369.359998 
L 583.7022 369.36 
L 583.7022 369.36 
" clip-path="url(#p7233abec4e)" style="fill: none; stroke: #ff7f0e; stroke-width: 4"/>
   </g>
   <g id="line2d_17">
    <path d="M 80.4978 369.358928 
L 132.7266 369.245674 
L 147.7926 369.000377 
L 157.8366 368.625598 
L 165.3696 368.137924 
L 171.8982 367.49418 
L 177.4224 366.725876 
L 182.4444 365.793622 
L 186.9642 364.715421 
L 190.9818 363.526013 
L 194.4972 362.275207 
L 198.0126 360.798284 
L 201.528 359.06405 
L 204.5412 357.347466 
L 207.5544 355.39505 
L 210.5676 353.183644 
L 213.5808 350.68939 
L 216.594 347.887981 
L 219.6072 344.754976 
L 222.6204 341.266151 
L 225.6336 337.397906 
L 228.6468 333.127712 
L 231.66 328.43461 
L 234.6732 323.299735 
L 237.6864 317.706878 
L 240.6996 311.643065 
L 243.7128 305.099148 
L 246.726 298.070398 
L 250.2414 289.258089 
L 253.7568 279.796674 
L 257.2722 269.708503 
L 261.2898 257.461411 
L 265.8096 242.891375 
L 276.858 206.657797 
L 278.8668 201.050452 
L 280.3734 197.405552 
L 281.88 194.405103 
L 282.8844 192.842552 
L 283.8888 191.687724 
L 284.8932 190.989084 
L 285.3954 190.825228 
L 285.8976 190.792117 
L 286.3998 190.89458 
L 286.902 191.136948 
L 287.4042 191.522964 
L 288.4086 192.737461 
L 289.413 194.552954 
L 290.4174 196.96937 
L 291.4218 199.969153 
L 292.9284 205.475665 
L 294.435 211.991264 
L 296.946 224.16645 
L 299.457 236.122123 
L 300.9636 242.14579 
L 301.968 245.339288 
L 302.9724 247.697238 
L 303.4746 248.520445 
L 303.9768 249.086578 
L 304.479 249.382723 
L 304.9812 249.397747 
L 305.4834 249.122429 
L 305.9856 248.549563 
L 306.4878 247.674045 
L 306.99 246.492937 
L 307.9944 243.2132 
L 308.9988 238.73089 
L 310.0032 233.100953 
L 311.0076 226.410407 
L 312.5142 214.644875 
L 314.523 196.502759 
L 322.056 124.852403 
L 323.5626 113.191289 
L 325.0692 103.038593 
L 326.5758 94.45401 
L 328.0824 87.414414 
L 329.0868 83.539281 
L 330.0912 80.277063 
L 331.0956 77.585704 
L 332.1 75.419975 
L 333.1044 73.733526 
L 334.1088 72.480581 
L 335.1132 71.617263 
L 336.1176 71.102552 
L 337.122 70.89893 
L 338.1264 70.972722 
L 339.1308 71.294215 
L 340.1352 71.837577 
L 341.1396 72.580644 
L 342.6462 74.02939 
L 344.1528 75.834635 
L 345.6594 77.95737 
L 347.6682 81.231426 
L 349.677 84.966053 
L 351.6858 89.122909 
L 354.1968 94.866589 
L 356.7078 101.17082 
L 359.721 109.407589 
L 362.7342 118.297942 
L 366.2496 129.381206 
L 370.2672 142.813406 
L 375.2892 160.440159 
L 383.3244 189.612939 
L 391.8618 220.396599 
L 397.386 239.461855 
L 401.9058 254.271587 
L 405.9234 266.712515 
L 409.941 278.392651 
L 413.4564 287.945724 
L 416.9718 296.851729 
L 420.4872 305.099146 
L 423.5004 311.643064 
L 426.5136 317.706878 
L 429.5268 323.299735 
L 432.54 328.43461 
L 435.5532 333.127712 
L 438.5664 337.397906 
L 441.5796 341.266151 
L 444.5928 344.754976 
L 447.606 347.887981 
L 450.6192 350.68939 
L 453.6324 353.183644 
L 456.6456 355.39505 
L 459.6588 357.347466 
L 462.672 359.06405 
L 466.1874 360.798284 
L 469.7028 362.275207 
L 473.2182 363.526013 
L 477.2358 364.715421 
L 481.7556 365.793622 
L 486.2754 366.643619 
L 491.2974 367.371659 
L 497.3238 368.010545 
L 504.3546 368.516925 
L 512.892 368.896176 
L 523.9404 369.154939 
L 541.0152 369.30719 
L 578.6802 369.35824 
L 583.7022 369.358928 
L 583.7022 369.358928 
" clip-path="url(#p7233abec4e)" style="fill: none; stroke: #2ca02c; stroke-width: 4"/>
   </g>
   <g id="patch_3">
    <path d="M 81 384.48 
L 81 51.84 
" style="fill: none; stroke: #000000; stroke-width: 0.8; stroke-linejoin: miter; stroke-linecap: square"/>
   </g>
   <g id="patch_4">
    <path d="M 583.2 384.48 
L 583.2 51.84 
" style="fill: none; stroke: #000000; stroke-width: 0.8; stroke-linejoin: miter; stroke-linecap: square"/>
   </g>
   <g id="patch_5">
    <path d="M 81 384.48 
L 583.2 384.48 
" style="fill: none; stroke: #000000; stroke-width: 0.8; stroke-linejoin: miter; stroke-linecap: square"/>
   </g>
   <g id="patch_6">
    <path d="M 81 51.84 
L 583.2 51.84 
" style="fill: none; stroke: #000000; stroke-width: 0.8; stroke-linejoin: miter; stroke-linecap: square"/>
   </g>
  </g>
 </g>
 <defs>
  <clipPath id="p7233abec4e">
   <rect x="81" y="51.84" width="502.2" height="332.64"/>
  </clipPath>
 </defs>
</svg>
